<svg xmlns="http://www.w3.org/2000/svg" width="24.687" height="23.114" viewBox="0 0 24.687 23.114"><g transform="translate(-315.156 -68.443)"><path d="M20.4,40.4a7.817,7.817,0,0,1,1.866-2.952,7.9,7.9,0,0,1,11.17,0l.844.849H31.795a1.579,1.579,0,1,0,0,3.159h6.313a1.578,1.578,0,0,0,1.579-1.579V33.556a1.579,1.579,0,1,0-3.159,0v2.527l-.864-.869A11.055,11.055,0,0,0,17.422,39.35,1.578,1.578,0,1,0,20.4,40.4Zm-3.263,4.279a1.572,1.572,0,0,0-.676.4,1.536,1.536,0,0,0-.4.691c-.015.059-.03.123-.039.188a1.442,1.442,0,0,0-.02.252v6.3a1.579,1.579,0,1,0,3.159,0V49.987l.869.864h0A11.064,11.064,0,0,0,38.271,46.72a1.578,1.578,0,0,0-2.976-1.051,7.817,7.817,0,0,1-1.866,2.952,7.9,7.9,0,0,1-11.17,0l0,0-.844-.844H23.9a1.579,1.579,0,1,0,0-3.159H17.6a1.908,1.908,0,0,0-.237.015A1.162,1.162,0,0,0,17.135,44.676Z" transform="translate(299.656 36.968)"/><path d="M20.4,40.4a7.817,7.817,0,0,1,1.866-2.952,7.9,7.9,0,0,1,11.17,0l.844.849H31.795a1.579,1.579,0,1,0,0,3.159h6.313a1.578,1.578,0,0,0,1.579-1.579V33.556a1.579,1.579,0,1,0-3.159,0v2.527l-.864-.869A11.055,11.055,0,0,0,17.422,39.35,1.578,1.578,0,1,0,20.4,40.4Zm-3.263,4.279a1.572,1.572,0,0,0-.676.4,1.536,1.536,0,0,0-.4.691c-.015.059-.03.123-.039.188a1.442,1.442,0,0,0-.02.252v6.3a1.579,1.579,0,1,0,3.159,0V49.987l.869.864h0A11.064,11.064,0,0,0,38.271,46.72a1.578,1.578,0,0,0-2.976-1.051,7.817,7.817,0,0,1-1.866,2.952,7.9,7.9,0,0,1-11.17,0l0,0-.844-.844H23.9a1.579,1.579,0,1,0,0-3.159H17.6a1.908,1.908,0,0,0-.237.015A1.162,1.162,0,0,0,17.135,44.676Z" transform="translate(299.656 36.968)" fill="none" stroke="#fff" stroke-width="1"/></g></svg>